<svg width="80" height="80" viewBox="0 0 80 80" fill="none" xmlns="http://www.w3.org/2000/svg">
<path d="M29.1667 5.83337C31.45 5.83337 33.545 6.68671 35.07 8.26337C36.595 9.84171 37.5 12.095 37.5 14.8134C37.5 17.5184 36.6067 20.2334 35.15 22.2884C33.7 24.3334 31.6 25.8334 29.1667 25.8334C26.7333 25.8334 24.6333 24.3334 23.1833 22.2884C21.7267 20.2334 20.8333 17.5184 20.8333 14.815C20.8333 12.095 21.7383 9.84171 23.265 8.26337C24.7883 6.68671 26.8833 5.83337 29.1667 5.83337ZM10.8333 20.8334C13.1167 20.8334 15.2117 21.6867 16.7367 23.2634C18.2617 24.8417 19.1667 27.095 19.1667 29.8134C19.1667 32.5184 18.2733 35.2334 16.8167 37.2884C15.3667 39.3334 13.2667 40.8334 10.8333 40.8334C8.4 40.8334 6.3 39.3334 4.85 37.2884C3.39333 35.2334 2.5 32.5167 2.5 29.815C2.5 27.095 3.405 24.8417 4.93167 23.2634C6.455 21.6867 8.55 20.8334 10.8333 20.8334ZM40 32.5C28.1267 32.5 18.29 42.6084 15.1933 55.2834C13.82 60.9067 15.915 66.9384 21.0817 69.7967C25.1867 72.07 31.33 74.1667 39.9983 74.1667C48.6683 74.1667 54.8117 72.07 58.9183 69.7967C64.0833 66.9384 66.1783 60.9067 64.805 55.285C61.71 42.6084 51.8717 32.5 40 32.5ZM69.1667 20.8334C66.8833 20.8334 64.7883 21.6867 63.265 23.2634C61.7383 24.8417 60.8333 27.095 60.8333 29.8134C60.8333 32.5184 61.7267 35.2334 63.1833 37.2884C64.6333 39.3334 66.7333 40.8334 69.1667 40.8334C71.6 40.8334 73.7 39.3334 75.15 37.2884C76.6067 35.2334 77.5 32.5184 77.5 29.815C77.5 27.095 76.595 24.8417 75.07 23.2634C73.545 21.6867 71.45 20.8334 69.1667 20.8334ZM50.8333 5.83337C48.55 5.83337 46.455 6.68671 44.9317 8.26337C43.405 9.84171 42.5 12.095 42.5 14.8134C42.5 17.5184 43.3933 20.2334 44.85 22.2884C46.3 24.3334 48.4 25.8334 50.8333 25.8334C53.2667 25.8334 55.3667 24.3334 56.8167 22.2884C58.2733 20.2334 59.1667 17.5184 59.1667 14.815C59.1667 12.095 58.2617 9.84171 56.7367 8.26337C55.2117 6.68671 53.1167 5.83337 50.8333 5.83337Z" fill="#1E1E1E"/>
</svg>
